<?xml version="1.0" encoding="UTF-8"?>
<svg width="166px" height="166px" viewBox="0 0 166 166" version="1.1" xmlns="http://www.w3.org/2000/svg" xmlns:xlink="http://www.w3.org/1999/xlink">
    <!-- Generator: Sketch 47 (45396) - http://www.bohemiancoding.com/sketch -->
    <title>Fill 1</title>
    <desc>Created with Sketch.</desc>
    <defs></defs>
    <g id="Page-1" stroke="none" stroke-width="1" fill="none" fill-rule="evenodd">
        <g id="Upload" transform="translate(-637.000000, -376.000000)" fill="#FFFFFF">
            <path d="M688.358967,382.291784 C645.993499,399.765489 625.816167,448.275677 643.291585,490.64109 L643.291585,490.64109 C660.766158,533.006502 709.27641,553.182962 751.641033,535.709257 L751.641033,535.709257 C794.006501,518.233863 814.183833,469.724519 796.708415,427.359952 L796.708415,427.359952 C783.503846,395.345103 752.574621,376.000845 719.968317,376 L719.968317,376 C709.425953,376 698.709544,378.021786 688.358967,382.291784 M737.350798,475.949558 C738.933251,475.755237 740.3763,475.196775 741.600525,474.378091 L741.600525,474.378091 L741.631786,474.356969 C743.258172,473.261166 744.131774,471.344989 743.892674,469.397553 L743.892674,469.397553 L742.83151,460.754481 L736.336947,407.856012 L735.642459,402.207178 L735.663581,402.205488 L735.661046,402.184366 L743.937453,401.167982 C744.893852,401.051389 745.764075,401.730668 745.881513,402.687067 L745.881513,402.687067 L746.637677,408.85043 C746.639366,408.859724 746.641901,408.868172 746.642746,408.877466 L746.642746,408.877466 L758.526773,505.661278 C758.78784,507.792052 757.272977,509.731041 755.143045,509.992107 L755.143045,509.992107 L699.59244,516.812783 C697.462507,517.073849 695.523516,515.558988 695.26245,513.428214 L695.26245,513.428214 L682.551288,409.911593 C682.472715,409.266953 682.931483,408.679765 683.576968,408.601192 L683.576968,408.601192 L701.522982,406.396913 L708.9317,466.732817 C707.612849,466.300241 706.1698,466.134645 704.682818,466.316293 L704.682818,466.316293 C699.543437,466.94826 692.759082,471.775031 693.354719,476.628838 L693.354719,476.628838 C693.949512,481.482645 701.702095,484.52504 706.839787,483.893918 L706.839787,483.893918 C708.42393,483.699597 709.865289,483.141134 711.090359,482.32245 L711.090359,482.32245 C712.736178,481.213974 713.619918,479.275831 713.378283,477.307272 L713.378283,477.307272 L712.321343,468.698841 L705.839454,415.909361 L733.286099,408.661178 L739.441867,458.789302 C738.123015,458.355881 736.679967,458.190286 735.19214,458.372779 L735.19214,458.372779 C730.052759,459.0039 723.268403,463.830671 723.864886,468.684478 L723.864886,468.684478 C724.408141,473.112468 730.904394,476.032356 735.94239,476.032356 L735.94239,476.032356 C736.427349,476.032356 736.89879,476.00532 737.350798,475.949558 M769.180661,466.355158 L769.303168,463.734355 C769.320066,462.863289 769.46454,462.000672 769.415537,461.131296 L769.415537,461.131296 C769.319221,459.397612 769.478058,457.664773 769.219526,455.956436 L769.219526,455.956436 C769.124055,455.102267 769.103778,454.23965 768.982115,453.391396 L768.982115,453.391396 L768.531797,450.86353 C767.85843,447.514445 766.763471,444.257452 765.172569,441.222661 L765.172569,441.222661 C763.557166,438.207302 761.519325,435.362608 758.857965,433.017235 L758.857965,433.017235 C762.049062,434.63686 764.637762,437.346374 766.613928,440.371872 L766.613928,440.371872 C767.151269,441.110292 767.556809,441.923062 767.976713,442.730763 L767.976713,442.730763 C768.429566,443.52579 768.755689,444.3732 769.098708,445.216385 L769.098708,445.216385 L769.600565,446.487077 L769.97231,447.799168 L770.339831,449.112949 L770.522325,449.769416 L770.642297,450.439402 L771.069804,453.12695 C771.174569,454.025897 771.20414,454.930758 771.254832,455.833084 L771.254832,455.833084 L771.310594,457.184884 C771.330026,457.636048 771.275954,458.086366 771.262436,458.535839 L771.262436,458.535839 C771.221037,459.433942 771.161051,460.332044 771.093461,461.227611 L771.093461,461.227611 C770.922796,463.011987 770.529084,464.768482 770.225773,466.519908 L770.225773,466.519908 C769.7349,468.239229 769.239803,469.950101 768.659373,471.622953 L768.659373,471.622953 C768.774276,469.838577 768.98634,468.09391 769.180661,466.355158 M775.756332,461.328996 L775.850113,459.313124 C775.863631,458.642294 775.975155,457.979912 775.937136,457.310771 L775.937136,457.310771 C775.863631,455.977558 775.985294,454.644345 775.785058,453.330565 L775.785058,453.330565 C775.713244,452.673252 775.697191,452.010025 775.60341,451.357781 L775.60341,451.357781 L775.257855,449.412034 C774.739101,446.836855 773.895915,444.331801 772.671689,441.997411 L772.671689,441.997411 C771.431411,439.677384 769.863321,437.489158 767.815342,435.684505 L767.815342,435.684505 C770.269707,436.930696 772.26108,439.015847 773.781857,441.342633 L773.781857,441.342633 C775.318686,443.683782 776.299588,446.358656 776.880862,449.085913 L776.880862,449.085913 L777.209519,451.154167 C777.289782,451.845274 777.311749,452.541451 777.352303,453.235094 L777.352303,453.235094 C777.386943,453.929581 777.417359,454.622378 777.357372,455.314331 L777.357372,455.314331 C777.326112,456.005439 777.279644,456.696547 777.228106,457.38512 L777.228106,457.38512 C777.095461,458.757197 776.792995,460.108997 776.559809,461.455728 L776.559809,461.455728 C776.18215,462.779647 775.801956,464.094272 775.355861,465.381017 L775.355861,465.381017 C775.443728,464.00894 775.607634,462.666433 775.756332,461.328996 M781.880839,457.911477 C781.913789,456.830882 782.010105,455.762115 782.024468,454.696727 L782.024468,454.696727 C781.966172,453.62965 782.063332,452.562573 781.904496,451.511549 L781.904496,451.511549 C781.846199,450.986036 781.834371,450.455455 781.758332,449.933322 L781.758332,449.933322 L781.481213,448.377062 C781.067223,446.317257 780.393012,444.312369 779.413801,442.445195 L779.413801,442.445195 C778.420227,440.589005 777.165586,438.838424 775.529061,437.394532 L775.529061,437.394532 C777.492553,438.391485 779.085144,440.059268 780.301766,441.921372 L780.301766,441.921372 C781.530216,443.79446 782.31595,445.934529 782.780632,448.116841 L782.780632,448.116841 C783.231796,450.311826 783.250383,452.557504 783.058597,454.755024 L783.058597,454.755024 C782.952987,455.853361 782.710508,456.934801 782.524635,458.012017 L782.524635,458.012017 C782.222169,459.070645 781.917169,460.12336 781.559786,461.151573 L781.559786,461.151573 C781.630756,460.05408 781.761712,458.981089 781.880839,457.911477 M674.755616,481.593323 C674.067042,480.077618 673.29736,478.580499 672.71862,477.003962 L672.71862,477.003962 C672.44657,476.208935 672.180434,475.410528 671.931196,474.605362 L671.931196,474.605362 C671.813758,474.200667 671.658301,473.806955 671.569589,473.394656 L671.569589,473.394656 L671.300073,472.155225 C671.134477,471.326402 670.946915,470.49927 670.829477,469.660309 L670.829477,469.660309 L670.581928,467.125684 L670.532081,466.490338 L670.543064,465.851612 L670.565876,464.575006 L670.593757,463.299245 L670.747524,462.029398 C670.859893,461.184523 670.954519,460.339648 671.176721,459.514205 L671.176721,459.514205 C671.367663,458.682848 671.542553,457.851491 671.854312,457.054774 L671.854312,457.054774 C672.931529,453.847628 674.636489,450.781577 677.144926,448.561245 L677.144926,448.561245 C675.287044,451.314693 674.112666,454.372295 673.362416,457.48566 L673.362416,457.48566 C672.636667,460.610008 672.414465,463.818843 672.593578,467.011626 L672.593578,467.011626 L672.782831,469.407691 C672.872388,470.204408 673.05826,470.990987 673.174008,471.786859 L673.174008,471.786859 C673.342984,473.395501 673.895533,474.928104 674.21743,476.520694 L674.21743,476.520694 C674.377112,477.319946 674.711683,478.066815 674.933885,478.852549 L674.933885,478.852549 L675.663013,481.197077 C676.248513,482.726301 676.853444,484.257214 677.378957,485.846424 L677.378957,485.846424 C676.458887,484.467588 675.606407,483.035525 674.755616,481.593323 M667.822563,478.501926 C667.292826,477.335998 666.700568,476.183589 666.256163,474.971193 L666.256163,474.971193 C666.045789,474.359503 665.841329,473.745279 665.650387,473.126831 L665.650387,473.126831 C665.431564,472.514296 665.296383,471.87895 665.165428,471.241915 L665.165428,471.241915 C665.037006,470.603189 664.892533,469.967843 664.802131,469.322359 L664.802131,469.322359 L664.612879,467.372387 C664.493751,464.764258 664.751438,462.109661 665.591245,459.625728 L665.591245,459.625728 C666.419224,457.159538 667.731316,454.800647 669.660169,453.09231 L669.660169,453.09231 C668.232328,455.210411 667.327466,457.562543 666.750415,459.957764 L666.750415,459.957764 C666.193642,462.360589 666.021287,464.829313 666.159847,467.28452 L666.159847,467.28452 L666.305166,469.128037 C666.374445,469.741417 666.516385,470.345502 666.605941,470.958882 L666.605941,470.958882 C666.735207,472.195779 667.16018,473.374379 667.408574,474.599448 L667.408574,474.599448 C667.532771,475.214517 667.788768,475.789032 667.959433,476.393118 L667.959433,476.393118 L668.520431,478.196926 C668.97075,479.372992 669.436276,480.549903 669.840127,481.773282 L669.840127,481.773282 C669.132121,480.712964 668.476497,479.611247 667.822563,478.501926 M661.607654,476.789364 C661.183526,475.857467 660.709551,474.935708 660.353858,473.964947 L660.353858,473.964947 C659.66106,472.0192 659.14822,469.981361 659.039231,467.886071 L659.039231,467.886071 C658.944605,465.79923 659.14991,463.676904 659.822431,461.688913 L659.822431,461.688913 C660.483969,459.715285 661.533305,457.828679 663.076894,456.461671 L663.076894,456.461671 C661.933776,458.156491 661.211407,460.038872 660.74926,461.954204 L660.74926,461.954204 C660.303166,463.876294 660.165451,465.851612 660.27613,467.815947 L660.27613,467.815947 L660.393567,469.291098 C660.448484,469.781971 660.562543,470.265239 660.633512,470.755267 L660.633512,470.755267 C660.737432,471.744615 661.077917,472.687496 661.274773,473.667551 L661.274773,473.667551 C661.541754,474.630708 661.881394,475.576124 662.165273,476.54604 L662.165273,476.54604 C662.526035,477.487231 662.89778,478.428422 663.221368,479.406787 L663.221368,479.406787 C662.655301,478.558532 662.130633,477.677328 661.607654,476.789364" id="Fill-1"></path>
        </g>
    </g>
</svg>