<?xml version="1.0" encoding="UTF-8"?>
<svg width="20px" height="20px" viewBox="0 0 20 20" version="1.1" xmlns="http://www.w3.org/2000/svg" xmlns:xlink="http://www.w3.org/1999/xlink">
    <!-- Generator: Sketch 47 (45396) - http://www.bohemiancoding.com/sketch -->
    <title>Combined Shape</title>
    <desc>Created with Sketch.</desc>
    <defs></defs>
    <g id="Page-1" stroke="none" stroke-width="1" fill="none" fill-rule="evenodd">
        <g id="Sign-Up" transform="translate(-557.000000, -692.000000)" fill-rule="nonzero" fill="#FFFFFF">
            <g id="Group-2" transform="translate(470.000000, 264.000000)">
                <g id="Group" transform="translate(63.000000, 408.000000)">
                    <path d="M42.8962311,40.0001552 L25.1038465,40.0001552 C24.4940303,40.0001552 24,39.5058145 24,38.8962311 L24,21.1038465 C24,20.4941079 24.4941079,20 25.1038465,20 L42.8962311,20 C43.5058145,20 44,20.4941079 44,21.1038465 L44,38.8962311 C44,39.5058921 43.5057369,40.0001552 42.8962311,40.0001552 Z M37.7997105,40.0001552 L37.7997105,32.2549929 L40.3993838,32.2549929 L40.788648,29.2365657 L37.7997105,29.2365657 L37.7997105,27.3094906 C37.7997105,26.4355863 38.0423798,25.8400494 39.2955374,25.8400494 L40.8938797,25.8393509 L40.8938797,23.1396454 C40.6174525,23.1028609 39.6686598,23.0206777 38.5648133,23.0206777 C36.2603476,23.0206777 34.682648,24.427337 34.682648,27.0105581 L34.682648,29.2365657 L32.0763007,29.2365657 L32.0763007,32.2549929 L34.682648,32.2549929 L34.682648,40.0001552 L37.7997105,40.0001552 Z" id="Combined-Shape"></path>
                </g>
            </g>
        </g>
    </g>
</svg>
