<?xml version="1.0" encoding="UTF-8"?>
<svg width="15px" height="24px" viewBox="0 0 15 24" version="1.1" xmlns="http://www.w3.org/2000/svg" xmlns:xlink="http://www.w3.org/1999/xlink">
    <!-- Generator: Sketch 47 (45396) - http://www.bohemiancoding.com/sketch -->
    <title>Shape</title>
    <desc>Created with Sketch.</desc>
    <defs></defs>
    <g id="Page-1" stroke="none" stroke-width="1" fill="none" fill-rule="evenodd">
        <g id="Sign-Up" transform="translate(-559.000000, -770.000000)" fill="#FFFFFF">
            <g id="Group-2" transform="translate(470.000000, 264.000000)">
                <g id="Group" transform="translate(63.000000, 408.000000)">
                    <path d="M38.1,111.4 L37,110.6 C36.6,110.3 36.2,109.9 36.2,109.2 C36.2,108.5 36.7,107.9 37.2,107.6 C38.5,106.6 39.8,105.5 39.8,103.3 C39.8,101.2 38.5,100 37.8,99.4 L39.5,99.4 L40.7,98 L34.5,98 C30.1,98 27.9,100.8 27.9,103.8 C27.9,106.1 29.7,108.6 32.9,108.6 L33.7,108.6 C33.6,108.9 33.3,109.4 33.3,109.9 C33.3,110.9 33.7,111.3 34.2,111.9 C32.8,112 30.2,112.3 28.3,113.5 C26.5,114.6 26,116.1 26,117.2 C26,119.5 28.1,121.7 32.6,121.7 C38,121.7 40.6,118.7 40.6,115.8 C40.6,113.7 39.5,112.6 38.1,111.4 L38.1,111.4 Z M30.5,102.3 C30.5,100.1 31.8,99.1 33.2,99.1 C35.8,99.1 37.2,102.6 37.2,104.6 C37.2,107.2 35.1,107.7 34.3,107.7 C31.8,107.7 30.5,104.6 30.5,102.3 L30.5,102.3 Z M34.1,120.3 C30.8,120.3 28.7,118.8 28.7,116.6 C28.7,114.4 30.7,113.7 31.3,113.4 C32.6,113 34.3,112.9 34.6,112.9 L35.3,112.9 C37.7,114.6 38.7,115.3 38.7,116.9 C38.7,118.8 36.8,120.3 34.1,120.3 L34.1,120.3 Z" id="Shape"></path>
                </g>
            </g>
        </g>
    </g>
</svg>