<?xml version="1.0" encoding="UTF-8"?>
<svg width="369px" height="369px" viewBox="0 0 369 369" version="1.1" xmlns="http://www.w3.org/2000/svg" xmlns:xlink="http://www.w3.org/1999/xlink">
    <!-- Generator: Sketch 47 (45396) - http://www.bohemiancoding.com/sketch -->
    <title>Group 3</title>
    <desc>Created with Sketch.</desc>
    <defs></defs>
    <g id="Page-1" stroke="none" stroke-width="1" fill="none" fill-rule="evenodd">
        <g id="Home" transform="translate(-535.000000, -1976.000000)">
            <g id="Record-your-sound" transform="translate(536.000000, 1977.000000)">
                <g id="Group-3">
                    <circle id="Oval-Copy-2" stroke="#FF0000" fill="#FF0000" opacity="0.049999997" cx="183.5" cy="183.5" r="183.5"></circle>
                    <circle id="Oval-Copy" stroke="#FF0000" fill="#FF0000" opacity="0.100000001" cx="183" cy="183" r="131"></circle>
                    <circle id="Oval" stroke="#FF0000" fill="#FF0000" opacity="0.200000003" cx="183" cy="183" r="75"></circle>
                    <path d="M184.421053,188.578947 C190.594737,188.578947 195.315789,183.857895 195.315789,177.684211 L195.315789,155.894737 C195.315789,149.721053 190.594737,145 184.421053,145 C178.247368,145 173.526316,149.721053 173.526316,155.894737 L173.526316,177.684211 C173.526316,183.857895 178.247368,188.578947 184.421053,188.578947 L184.421053,188.578947 Z M203.668421,177.684211 C203.668421,188.578947 194.589474,196.205263 184.421053,196.205263 C174.252632,196.205263 165.173684,188.578947 165.173684,177.684211 L159,177.684211 C159,190.031579 168.805263,200.2 180.789474,202.015789 L180.789474,214 L188.052632,214 L188.052632,202.015789 C200.036842,200.2 209.842105,190.031579 209.842105,177.684211 L203.668421,177.684211 L203.668421,177.684211 Z" id="Shape" fill="#FFFFFF"></path>
                </g>
            </g>
        </g>
    </g>
</svg>