<?xml version="1.0" encoding="UTF-8"?>
<svg width="18px" height="18px" viewBox="0 0 18 18" version="1.1" xmlns="http://www.w3.org/2000/svg" xmlns:xlink="http://www.w3.org/1999/xlink">
    <!-- Generator: Sketch 47 (45396) - http://www.bohemiancoding.com/sketch -->
    <title>Shape</title>
    <desc>Created with Sketch.</desc>
    <defs></defs>
    <g id="Page-1" stroke="none" stroke-width="1" fill="none" fill-rule="evenodd">
        <g id="Home" transform="translate(-573.000000, -79.000000)" fill="#4A4A4A">
            <g id="Header">
                <g id="Group-4" transform="translate(0.000000, 62.000000)">
                    <path d="M585.857143,28.3142857 L585.034286,28.3142857 L584.725714,28.0057143 C585.754286,26.8742857 586.371429,25.3314286 586.371429,23.6857143 C586.371429,19.9828571 583.388571,17 579.685714,17 C575.982857,17 573,19.9828571 573,23.6857143 C573,27.3885714 575.982857,30.3714286 579.685714,30.3714286 C581.331429,30.3714286 582.874286,29.7542857 584.005714,28.7257143 L584.314286,29.0342857 L584.314286,29.8571429 L589.457143,35 L591,33.4571429 L585.857143,28.3142857 L585.857143,28.3142857 Z M579.685714,28.3142857 C577.114286,28.3142857 575.057143,26.2571429 575.057143,23.6857143 C575.057143,21.1142857 577.114286,19.0571429 579.685714,19.0571429 C582.257143,19.0571429 584.314286,21.1142857 584.314286,23.6857143 C584.314286,26.2571429 582.257143,28.3142857 579.685714,28.3142857 L579.685714,28.3142857 Z" id="Shape"></path>
                </g>
            </g>
        </g>
    </g>
</svg>