<?xml version="1.0" encoding="UTF-8"?>
<svg width="18px" height="18px" viewBox="0 0 18 18" version="1.1" xmlns="http://www.w3.org/2000/svg" xmlns:xlink="http://www.w3.org/1999/xlink">
    <!-- Generator: Sketch 47 (45396) - http://www.bohemiancoding.com/sketch -->
    <title>Shape</title>
    <desc>Created with Sketch.</desc>
    <defs></defs>
    <g id="Page-1" stroke="none" stroke-width="1" fill="none" fill-rule="evenodd">
        <g id="User-Profile" transform="translate(-605.000000, -291.000000)" fill="#069359">
            <path d="M608.6,298.8 C610,301.6 612.4,303.9 615.2,305.4 L617.4,303.2 C617.7,302.9 618.1,302.8 618.4,303 C619.5,303.4 620.7,303.6 622,303.6 C622.6,303.6 623,304 623,304.6 L623,308 C623,308.6 622.6,309 622,309 C612.6,309 605,301.4 605,292 C605,291.4 605.4,291 606,291 L609.5,291 C610.1,291 610.5,291.4 610.5,292 C610.5,293.2 610.7,294.4 611.1,295.6 C611.2,295.9 611.1,296.3 610.9,296.6 L608.6,298.8 L608.6,298.8 Z" id="Shape"></path>
        </g>
    </g>
</svg>