<?xml version="1.0" encoding="UTF-8"?>
<svg width="203px" height="203px" viewBox="0 0 203 203" version="1.1" xmlns="http://www.w3.org/2000/svg" xmlns:xlink="http://www.w3.org/1999/xlink">
    <!-- Generator: Sketch 47.1 (45422) - http://www.bohemiancoding.com/sketch -->
    <title>Group 8</title>
    <desc>Created with Sketch.</desc>
    <defs></defs>
    <g id="Page-1" stroke="none" stroke-width="1" fill="none" fill-rule="evenodd">
        <g id="Upload" transform="translate(-505.000000, -548.000000)">
            <g id="Group" transform="translate(338.000000, 548.000000)">
                <g id="Group-2">
                    <g id="Group-8" transform="translate(167.000000, 0.000000)">
                        <rect id="Rectangle" fill="#FF7F7F" x="0" y="0" width="202.5" height="202.5" rx="10"></rect>
                        <path d="M103.115385,108.684211 C108.971978,108.684211 113.450549,104.168421 113.450549,98.2631579 L113.450549,77.4210526 C113.450549,71.5157895 108.971978,67 103.115385,67 C97.2587912,67 92.7802198,71.5157895 92.7802198,77.4210526 L92.7802198,98.2631579 C92.7802198,104.168421 97.2587912,108.684211 103.115385,108.684211 L103.115385,108.684211 Z M121.374176,98.2631579 C121.374176,108.684211 112.761538,115.978947 103.115385,115.978947 C93.4692308,115.978947 84.8565934,108.684211 84.8565934,98.2631579 L79,98.2631579 C79,110.073684 88.3016484,119.8 99.6703297,121.536842 L99.6703297,133 L106.56044,133 L106.56044,121.536842 C117.929121,119.8 127.230769,110.073684 127.230769,98.2631579 L121.374176,98.2631579 L121.374176,98.2631579 Z" id="Shape" fill="#FFFFFF"></path>
                    </g>
                </g>
            </g>
        </g>
    </g>
</svg>